<svg width="231" height="43" viewBox="0 0 231 43" fill="none" xmlns="http://www.w3.org/2000/svg">
<mask id="mask0_1_916" style="mask-type:luminance" maskUnits="userSpaceOnUse" x="0" y="0" width="31" height="39">
<path d="M0 1.97248V38.7395H20.3165L21.4211 36.0964V24.0642L23.867 20.1587L30.3762 19.0147V0" fill="white"/>
</mask>
<g mask="url(#mask0_1_916)">
<path d="M27.4176 6.3118V17.476L21.0663 34.321H4.93137V6.3118H27.4176ZM29.7846 3.94482H2.5644V36.688C2.5644 36.688 14.636 36.688 22.6837 36.688L29.7846 17.91C29.7846 10.6118 29.7846 3.94482 29.7846 3.94482Z" fill="white"/>
</g>
<path d="M11.2431 10.2571H7.69265V13.8075H11.2431V10.2571Z" fill="white"/>
<path d="M17.5549 10.2571H14.0044V13.8075H17.5549V10.2571Z" fill="white"/>
<path d="M23.8666 10.2571H20.3162V13.8075H23.8666V10.2571Z" fill="white"/>
<path d="M17.5549 16.5688H14.0044V20.1193H17.5549V16.5688Z" fill="white"/>
<path d="M11.2431 16.5688H7.69265V20.1193H11.2431V16.5688Z" fill="white"/>
<path d="M17.5549 24.0645H14.0044V27.6149H17.5549V24.0645Z" fill="white"/>
<path d="M11.2431 24.0645H7.69265V36.6883H11.2431V24.0645Z" fill="white"/>
<path d="M28.6006 20.1197C31.8749 20.1197 34.518 22.7628 34.518 26.0371V34.716C34.518 37.9903 31.8749 40.6334 28.6006 40.6334C25.3263 40.6334 22.6831 37.9903 22.6831 34.716V26.0371C22.6831 22.7628 25.3263 20.1197 28.6006 20.1197ZM28.6006 17.7527C24.0244 17.7527 20.3162 21.4609 20.3162 26.0371V34.716C20.3162 39.2922 24.0244 43.0004 28.6006 43.0004C33.1767 43.0004 36.885 39.2922 36.885 34.716V26.0371C36.885 21.4609 33.1767 17.7527 28.6006 17.7527Z" fill="white"/>
<path fill-rule="evenodd" clip-rule="evenodd" d="M28.6012 22.8806C27.9305 22.8806 27.4177 23.3935 27.4177 24.0641V28.4036C27.4177 29.0742 27.9305 29.587 28.6012 29.587C29.2718 29.587 29.7847 29.0742 29.7847 28.4036V24.0641C29.7847 23.3935 29.2718 22.8806 28.6012 22.8806Z" fill="white"/>
<path fill-rule="evenodd" clip-rule="evenodd" d="M35.3077 11.046C32.0729 10.9671 28.9958 13.8075 28.9958 13.8075C28.9958 13.8075 28.6802 16.4901 28.9958 17.7525C29.193 18.5415 30.771 14.1231 35.3077 13.8075C35.3077 13.7681 35.3866 11.046 35.3077 11.046Z" fill="white"/>
<path d="M54.3613 5.7992L56.3732 6.1148L52.0732 17.4763H51.9943L50.8503 14.5176L47.3787 6.07535L49.3117 5.75976V3.74783H42.1319V5.75976L43.9861 6.0359L50.653 20.8689L50.0218 22.1708C49.6273 23.0387 49.2329 23.6304 48.9173 23.9855C48.6017 24.3405 48.0494 24.5378 47.2998 24.5378C47.1026 24.5378 46.8659 24.5378 46.5108 24.5378C46.1558 24.5378 45.9191 24.4983 45.8402 24.4983L45.7613 26.8258C45.8402 26.8653 46.0769 26.9047 46.4319 26.9047C46.787 26.9442 47.1026 26.9442 47.3393 26.9442C48.9173 26.9442 50.1007 26.5891 50.8108 25.9185C51.5209 25.2478 52.231 24.2222 52.8228 22.8414L59.8842 5.957L61.6595 5.68085V3.66893H54.3218V5.7992H54.3613ZM63.0402 5.7992L65.6044 6.23315V24.3011L63.0402 24.735V26.7075H71.2852V24.735L68.7209 24.3011V6.23315H79.8852V24.3011L77.3209 24.735V26.7075H85.5659V24.735L83.0017 24.3011V6.23315L85.5659 5.7992V3.78728H63.0797V5.7992H63.0402ZM97.4797 17.5552C99.9256 17.5552 101.819 16.924 103.2 15.701C104.541 14.4387 105.251 12.7818 105.251 10.691C105.251 8.63958 104.581 6.98269 103.2 5.7203C101.859 4.45792 99.9256 3.82672 97.4797 3.82672H86.9466V5.83865L89.5109 6.2726V24.3405L86.9466 24.7745V26.7469H95.1916V24.7745L92.6274 24.3405V17.5552H97.4797ZM92.6274 6.2726H97.4797C99.0182 6.2726 100.202 6.70655 100.951 7.53499C101.74 8.40288 102.095 9.42856 102.095 10.7304C102.095 11.9928 101.701 13.0579 100.951 13.8864C100.162 14.7148 99.0182 15.1488 97.4797 15.1488H92.6274V6.2726ZM114.719 3.82672H112.076L104.068 24.5378L102.371 24.7745V26.7469H108.92V24.7745L107.184 24.4589L108.762 20.2377H117.954L119.453 24.4589L117.717 24.7745V26.7469H124.305V24.7745L122.609 24.5378L114.719 3.82672ZM109.709 17.6341L113.338 7.81113H113.417L116.968 17.6341H109.709ZM139.572 14.5176C140.638 14.1231 141.466 13.5313 142.137 12.7423C142.768 11.9533 143.123 11.046 143.123 10.0203C143.123 7.96893 142.452 6.39095 141.111 5.36526C139.77 4.33957 137.876 3.82672 135.509 3.82672H125.449V5.83865L128.014 6.2726V24.3405L125.449 24.7745V26.7469H136.456C138.783 26.7469 140.638 26.1946 141.979 25.09C143.36 23.9855 144.03 22.368 144.03 20.2772C144.03 18.857 143.636 17.6341 142.847 16.5689C142.018 15.5038 140.953 14.8332 139.572 14.5176ZM131.091 6.2726H135.47C136.929 6.2726 138.073 6.58819 138.823 7.17994C139.612 7.81113 140.006 8.71847 140.006 9.94141C140.006 11.046 139.651 11.9139 138.981 12.5451C138.31 13.1763 137.403 13.4919 136.298 13.5313H131.13V6.2726H131.091ZM139.73 23.2754C138.941 23.9855 137.837 24.3405 136.416 24.3405H131.051V16.0166H136.89C138.231 16.0166 139.257 16.4111 139.888 17.1607C140.559 17.9102 140.874 18.9754 140.874 20.3166C140.914 21.579 140.519 22.5653 139.73 23.2754ZM165.136 6.2726L167.7 5.83865V3.82672H148.764V5.83865L151.171 6.2726L150.776 13.1368C150.697 16.1744 150.342 18.5809 149.671 20.3166C149.001 22.0919 148.251 23.4332 147.462 24.3405H145.49L145.963 32.4277H148.606V26.7864H165.136V32.3488H167.937L168.252 24.3011H165.096V6.2726H165.136ZM162.019 24.3011H150.934C151.762 23.1176 152.472 21.579 152.985 19.6855C153.538 17.7919 153.853 15.5827 153.932 13.0974L154.287 6.2726H162.019V24.3011ZM179.416 3.47168C176.458 3.47168 174.051 4.57627 172.197 6.78544C170.343 8.99462 169.436 11.7561 169.436 15.1093V15.4249C169.436 18.7781 170.343 21.5396 172.197 23.7488C174.051 25.9579 176.458 27.0625 179.416 27.0625C182.454 27.0625 184.939 25.9579 186.872 23.7488C188.805 21.5396 189.752 18.7781 189.752 15.4249V15.1093C189.752 11.7955 188.805 8.99462 186.872 6.78544C184.939 4.57627 182.454 3.47168 179.416 3.47168ZM186.636 15.4643C186.636 18.1469 186.005 20.3561 184.742 22.013C183.48 23.7093 181.705 24.5378 179.416 24.5378C177.247 24.5378 175.55 23.7093 174.367 22.013C173.144 20.3166 172.552 18.1469 172.552 15.4643V15.1093C172.552 12.4662 173.144 10.2965 174.367 8.60012C175.59 6.90379 177.247 6.07535 179.416 6.07535C181.665 6.07535 183.44 6.90379 184.703 8.60012C185.965 10.2965 186.596 12.4662 186.596 15.1093V15.4643H186.636ZM193.224 5.7992L195.67 6.23315L195.275 14.5965C195.117 18.1864 194.762 20.6717 194.171 22.1313C193.579 23.591 192.593 24.3011 191.172 24.3011H190.541V26.7075H191.37C193.855 26.7075 195.551 25.7607 196.577 23.8671C197.563 21.9735 198.194 18.8965 198.392 14.5965L198.786 6.23315H206.716V24.3011L204.151 24.735V26.7075H212.396V24.735L209.832 24.3011V6.23315L212.396 5.7992V3.78728H193.263V5.7992H193.224ZM213.856 3.82672V5.83865L216.42 6.2726V24.3405L213.856 24.7745V26.7469H222.101V24.7745L219.537 24.3405V6.2726H227.584L227.821 8.91572H230.464V3.82672H213.856Z" fill="white"/>
</svg>
