<svg width="12" height="12" viewBox="0 0 12 12" fill="none" xmlns="http://www.w3.org/2000/svg">
<path d="M10.6159 12H10.5374C1.47155 11.4785 0.184328 3.82615 0.00439445 1.49077C-0.0101039 1.30919 0.0113559 1.12653 0.0675442 0.953267C0.123733 0.779999 0.213545 0.619525 0.331836 0.481039C0.450127 0.342554 0.594571 0.228779 0.756891 0.146234C0.919212 0.0636882 1.09622 0.0139947 1.27777 4.32734e-07H3.81991C4.00472 -0.000178535 4.18532 0.0551587 4.33832 0.158844C4.49132 0.26253 4.60968 0.409786 4.67806 0.581539L5.37934 2.30769C5.44686 2.47548 5.46362 2.65942 5.42753 2.83666C5.39144 3.01389 5.30409 3.17662 5.17634 3.30462L4.19362 4.29692C4.34713 5.16958 4.76488 5.974 5.39036 6.60137C6.01585 7.22873 6.81887 7.64875 7.69079 7.80462L8.69197 6.81231C8.82184 6.68592 8.98603 6.60058 9.16407 6.56693C9.34211 6.53327 9.52612 6.5528 9.69313 6.62308L11.4325 7.32C11.6016 7.39056 11.7459 7.50989 11.8469 7.66277C11.948 7.81566 12.0013 7.99518 12 8.17846V10.6154C12 10.9826 11.8542 11.3348 11.5946 11.5945C11.335 11.8541 10.983 12 10.6159 12ZM1.3885 0.923077C1.26614 0.923077 1.14879 0.971704 1.06226 1.05826C0.97574 1.14481 0.927132 1.26221 0.927132 1.38462V1.42154C1.13936 4.15385 2.5004 10.6154 10.5882 11.0769C10.6488 11.0807 10.7096 11.0724 10.767 11.0526C10.8244 11.0328 10.8773 11.0019 10.9228 10.9616C10.9682 10.9213 11.0052 10.8724 11.0317 10.8177C11.0583 10.7631 11.0737 10.7037 11.0772 10.6431V8.17846L9.33788 7.48154L8.01375 8.79692L7.7923 8.76923C3.77839 8.26615 3.23397 4.25077 3.23397 4.20923L3.20629 3.98769L4.51658 2.66308L3.82453 0.923077H1.3885Z" fill="white"/>
</svg>
