<svg width="16" height="16" viewBox="0 0 16 16" fill="none" xmlns="http://www.w3.org/2000/svg">
<path d="M10.2604 8.77977C10.3507 8.77977 10.6892 8.92643 11.276 9.21977C11.8628 9.5131 12.1736 9.68977 12.2083 9.74977C12.2222 9.7831 12.2292 9.8331 12.2292 9.89977C12.2292 10.1198 12.1701 10.3731 12.0521 10.6598C11.941 10.9198 11.6944 11.1381 11.3125 11.3148C10.9306 11.4914 10.5764 11.5798 10.25 11.5798C9.85417 11.5798 9.19444 11.3731 8.27083 10.9598C7.59028 10.6598 7 10.2664 6.5 9.77977C6 9.2931 5.48611 8.67643 4.95833 7.92977C4.45833 7.21643 4.21181 6.56977 4.21875 5.98977V5.90977C4.23958 5.3031 4.49653 4.77643 4.98958 4.32977C5.15625 4.1831 5.33681 4.10977 5.53125 4.10977C5.57292 4.10977 5.63542 4.11477 5.71875 4.12477C5.80208 4.13477 5.86806 4.13977 5.91667 4.13977C6.04861 4.13977 6.14062 4.16143 6.19271 4.20477C6.24479 4.2481 6.29861 4.33977 6.35417 4.47977C6.40972 4.6131 6.52431 4.90643 6.69792 5.35977C6.87153 5.8131 6.95833 6.0631 6.95833 6.10977C6.95833 6.24977 6.83854 6.44143 6.59896 6.68477C6.35938 6.9281 6.23958 7.0831 6.23958 7.14977C6.23958 7.19643 6.25694 7.24643 6.29167 7.29977C6.52778 7.78643 6.88194 8.2431 7.35417 8.66977C7.74306 9.0231 8.26736 9.35977 8.92708 9.67977C9.01042 9.72643 9.08681 9.74977 9.15625 9.74977C9.26042 9.74977 9.44792 9.5881 9.71875 9.26477C9.98958 8.94143 10.1701 8.77977 10.2604 8.77977ZM8.14583 14.0798C9.02778 14.0798 9.87326 13.9131 10.6823 13.5798C11.4913 13.2464 12.1875 12.7998 12.7708 12.2398C13.3542 11.6798 13.8194 11.0114 14.1667 10.2348C14.5139 9.4581 14.6875 8.64643 14.6875 7.79977C14.6875 6.9531 14.5139 6.14143 14.1667 5.36477C13.8194 4.5881 13.3542 3.91977 12.7708 3.35977C12.1875 2.79977 11.4913 2.3531 10.6823 2.01977C9.87326 1.68643 9.02778 1.51977 8.14583 1.51977C7.26389 1.51977 6.4184 1.68643 5.60938 2.01977C4.80035 2.3531 4.10417 2.79977 3.52083 3.35977C2.9375 3.91977 2.47222 4.5881 2.125 5.36477C1.77778 6.14143 1.60417 6.9531 1.60417 7.79977C1.60417 9.1531 2.02083 10.3798 2.85417 11.4798L2.03125 13.8098L4.55208 13.0398C5.64931 13.7331 6.84722 14.0798 8.14583 14.0798ZM8.14583 0.259766C9.20833 0.259766 10.224 0.459766 11.1927 0.859766C12.1615 1.25977 12.9965 1.79643 13.6979 2.46977C14.3993 3.1431 14.9583 3.94477 15.375 4.87477C15.7917 5.80477 16 6.77977 16 7.79977C16 8.81977 15.7917 9.79477 15.375 10.7248C14.9583 11.6548 14.3993 12.4564 13.6979 13.1298C12.9965 13.8031 12.1615 14.3398 11.1927 14.7398C10.224 15.1398 9.20833 15.3398 8.14583 15.3398C6.79167 15.3398 5.52431 15.0264 4.34375 14.3998L0 15.7398L1.41667 11.6898C0.666667 10.5031 0.291667 9.20643 0.291667 7.79977C0.291667 6.77977 0.5 5.80477 0.916667 4.87477C1.33333 3.94477 1.89236 3.1431 2.59375 2.46977C3.29514 1.79643 4.13021 1.25977 5.09896 0.859766C6.06771 0.459766 7.08333 0.259766 8.14583 0.259766Z" fill="white"/>
</svg>
