<svg width="16" height="16" viewBox="0 0 16 16" fill="none" xmlns="http://www.w3.org/2000/svg">
<path fill-rule="evenodd" clip-rule="evenodd" d="M0 8C0 5.87827 0.842855 3.84344 2.34315 2.34315C3.84344 0.842855 5.87827 0 8 0C10.1217 0 12.1566 0.842855 13.6569 2.34315C15.1571 3.84344 16 5.87827 16 8C16 10.1217 15.1571 12.1566 13.6569 13.6569C12.1566 15.1571 10.1217 16 8 16C5.87827 16 3.84344 15.1571 2.34315 13.6569C0.842855 12.1566 0 10.1217 0 8ZM8 1.14752C6.18261 1.14752 4.43965 1.86947 3.15456 3.15456C1.86947 4.43965 1.14752 6.18261 1.14752 8C1.14752 9.81739 1.86947 11.5603 3.15456 12.8454C4.43965 14.1305 6.18261 14.8525 8 14.8525C9.81739 14.8525 11.5603 14.1305 12.8454 12.8454C14.1305 11.5603 14.8525 9.81739 14.8525 8C14.8525 6.18261 14.1305 4.43965 12.8454 3.15456C11.5603 1.86947 9.81739 1.14752 8 1.14752ZM10.8434 5.15778C10.9566 5.27104 11.0203 5.42463 11.0203 5.58478C11.0203 5.74493 10.9566 5.89852 10.8434 6.01178L8.85399 8L10.8434 9.98822C10.9568 10.1016 11.0205 10.2554 11.0205 10.4158C11.0205 10.5762 10.9568 10.73 10.8434 10.8434C10.73 10.9568 10.5762 11.0205 10.4158 11.0205C10.2554 11.0205 10.1016 10.9568 9.98822 10.8434L8 8.85399L6.01178 10.8434C5.95562 10.8996 5.88896 10.9441 5.81559 10.9745C5.74222 11.0049 5.66359 11.0205 5.58418 11.0205C5.50476 11.0205 5.42613 11.0049 5.35276 10.9745C5.27939 10.9441 5.21273 10.8996 5.15658 10.8434C5.10042 10.7873 5.05588 10.7206 5.02549 10.6472C4.9951 10.5739 4.97946 10.4952 4.97946 10.4158C4.97946 10.3364 4.9951 10.2578 5.02549 10.1844C5.05588 10.111 5.10042 10.0444 5.15658 9.98822L7.14601 8L5.15658 6.01178C5.04317 5.89837 4.97946 5.74456 4.97946 5.58418C4.97946 5.4238 5.04317 5.26998 5.15658 5.15658C5.26998 5.04317 5.4238 4.97946 5.58418 4.97946C5.74456 4.97946 5.89837 5.04317 6.01178 5.15658L8 7.14601L9.98822 5.15658C10.0443 5.10033 10.111 5.05571 10.1843 5.02526C10.2577 4.99481 10.3364 4.97914 10.4158 4.97914C10.4953 4.97914 10.5739 4.99481 10.6473 5.02526C10.7207 5.05571 10.7873 5.10033 10.8434 5.15658V5.15778Z" fill="#B9B9B9"/>
</svg>
