<svg width="222" height="42" viewBox="0 0 222 42" fill="none" xmlns="http://www.w3.org/2000/svg">
<mask id="mask0_1_5499" style="mask-type:luminance" maskUnits="userSpaceOnUse" x="0" y="0" width="30" height="38">
<path d="M0 1.90004V37.3167H19.5704L20.6344 34.7707V23.1804L22.9904 19.4184L29.2606 18.3164V0" fill="white"/>
</mask>
<g mask="url(#mask0_1_5499)">
<path d="M26.4105 6.08009V16.8343L20.2924 33.0606H4.75013V6.08009H26.4105ZM28.6906 3.80005H2.47009V35.3407C2.47009 35.3407 14.0983 35.3407 21.8505 35.3407L28.6906 17.2523C28.6906 10.2222 28.6906 3.80005 28.6906 3.80005Z" fill="#2A93D5"/>
</g>
<path d="M10.8303 9.88037H7.41025V13.3004H10.8303V9.88037Z" fill="#2A93D5"/>
<path d="M16.9101 9.88037H13.49V13.3004H16.9101V9.88037Z" fill="#2A93D5"/>
<path d="M22.9903 9.88037H19.5703V13.3004H22.9903V9.88037Z" fill="#2A93D5"/>
<path d="M16.9101 15.9602H13.49V19.3803H16.9101V15.9602Z" fill="#2A93D5"/>
<path d="M10.8303 15.9602H7.41025V19.3803H10.8303V15.9602Z" fill="#2A93D5"/>
<path d="M16.9101 23.1807H13.49V26.6007H16.9101V23.1807Z" fill="#2A93D5"/>
<path d="M10.8303 23.1807H7.41025V35.3409H10.8303V23.1807Z" fill="#2A93D5"/>
<path d="M27.5504 19.3806C30.7045 19.3806 33.2505 21.9267 33.2505 25.0807V33.4409C33.2505 36.595 30.7045 39.141 27.5504 39.141C24.3963 39.141 21.8503 36.595 21.8503 33.4409V25.0807C21.8503 21.9267 24.3963 19.3806 27.5504 19.3806ZM27.5504 17.1006C23.1423 17.1006 19.5703 20.6727 19.5703 25.0807V33.4409C19.5703 37.849 23.1423 41.4211 27.5504 41.4211C31.9585 41.4211 35.5306 37.849 35.5306 33.4409V25.0807C35.5306 20.6727 31.9585 17.1006 27.5504 17.1006Z" fill="#2A93D5"/>
<path fill-rule="evenodd" clip-rule="evenodd" d="M27.5505 22.0403C26.9045 22.0403 26.4105 22.5343 26.4105 23.1803V27.3604C26.4105 28.0064 26.9045 28.5004 27.5505 28.5004C28.1965 28.5004 28.6905 28.0064 28.6905 27.3604V23.1803C28.6905 22.5343 28.1965 22.0403 27.5505 22.0403Z" fill="#2A93D5"/>
<path fill-rule="evenodd" clip-rule="evenodd" d="M34.011 10.6402C30.8949 10.5642 27.9309 13.3003 27.9309 13.3003C27.9309 13.3003 27.6269 15.8843 27.9309 17.1004C28.1209 17.8604 29.6409 13.6043 34.011 13.3003C34.011 13.2623 34.087 10.6402 34.011 10.6402Z" fill="#2A93D5"/>
<path d="M52.3645 5.58628L54.3026 5.89029L50.1605 16.8345H50.0845L48.9825 13.9844L45.6384 5.85228L47.5004 5.54828V3.61024H40.5843V5.54828L42.3703 5.81429L48.7925 20.1026L48.1845 21.3566C47.8044 22.1926 47.4244 22.7626 47.1204 23.1046C46.8164 23.4466 46.2844 23.6366 45.5624 23.6366C45.3724 23.6366 45.1444 23.6366 44.8024 23.6366C44.4604 23.6366 44.2324 23.5986 44.1564 23.5986L44.0804 25.8407C44.1564 25.8787 44.3844 25.9167 44.7264 25.9167C45.0684 25.9547 45.3724 25.9547 45.6004 25.9547C47.1204 25.9547 48.2605 25.6127 48.9445 24.9667C49.6285 24.3206 50.3125 23.3326 50.8825 22.0026L57.6846 5.73829L59.3947 5.47228V3.53424H52.3265V5.58628H52.3645ZM60.7247 5.58628L63.1947 6.00429V23.4086L60.7247 23.8266V25.7267H68.6668V23.8266L66.1968 23.4086V6.00429H76.951V23.4086L74.481 23.8266V25.7267H82.4231V23.8266L79.9531 23.4086V6.00429L82.4231 5.58628V3.64825H60.7627V5.58628H60.7247ZM93.8993 16.9105C96.2554 16.9105 98.0794 16.3025 99.4094 15.1245C100.701 13.9084 101.385 12.3124 101.385 10.2984C101.385 8.32234 100.739 6.7263 99.4094 5.51028C98.1174 4.29426 96.2554 3.68624 93.8993 3.68624H83.7531V5.62428L86.2232 6.04229V23.4466L83.7531 23.8646V25.7647H91.6953V23.8646L89.2252 23.4466V16.9105H93.8993ZM89.2252 6.04229H93.8993C95.3814 6.04229 96.5214 6.4603 97.2434 7.25831C98.0034 8.09433 98.3454 9.08235 98.3454 10.3364C98.3454 11.5524 97.9654 12.5784 97.2434 13.3764C96.4834 14.1744 95.3814 14.5925 93.8993 14.5925H89.2252V6.04229ZM110.506 3.68624H107.96L100.245 23.6366L98.6114 23.8646V25.7647H104.92V23.8646L103.248 23.5606L104.768 19.4945H113.622L115.066 23.5606L113.394 23.8646V25.7647H119.74V23.8646L118.106 23.6366L110.506 3.68624ZM105.68 16.9865L109.176 7.52432H109.252L112.672 16.9865H105.68ZM134.446 13.9844C135.472 13.6044 136.27 13.0344 136.916 12.2744C137.524 11.5144 137.866 10.6404 137.866 9.65236C137.866 7.67632 137.22 6.15629 135.928 5.16827C134.636 4.18026 132.812 3.68624 130.532 3.68624H120.842V5.62428L123.312 6.04229V23.4466L120.842 23.8646V25.7647H131.444C133.686 25.7647 135.472 25.2327 136.764 24.1686C138.094 23.1046 138.74 21.5466 138.74 19.5325C138.74 18.1645 138.36 16.9865 137.6 15.9605C136.802 14.9345 135.776 14.2884 134.446 13.9844ZM126.276 6.04229H130.494C131.9 6.04229 133.002 6.34629 133.724 6.9163C134.484 7.52432 134.864 8.39833 134.864 9.57636C134.864 10.6404 134.522 11.4764 133.876 12.0844C133.23 12.6924 132.356 12.9964 131.292 13.0344H126.314V6.04229H126.276ZM134.598 22.4206C133.838 23.1046 132.774 23.4466 131.406 23.4466H126.238V15.4285H131.862C133.154 15.4285 134.142 15.8085 134.75 16.5305C135.396 17.2525 135.7 18.2785 135.7 19.5705C135.738 20.7866 135.358 21.7366 134.598 22.4206ZM159.071 6.04229L161.541 5.62428V3.68624H143.3V5.62428L145.618 6.04229L145.238 12.6544C145.162 15.5805 144.82 17.8985 144.174 19.5705C143.528 21.2806 142.806 22.5726 142.046 23.4466H140.146L140.602 31.2368H143.148V25.8027H159.071V31.1608H161.769L162.073 23.4086H159.033V6.04229H159.071ZM156.069 23.4086H145.39C146.188 22.2686 146.872 20.7866 147.366 18.9625C147.898 17.1385 148.202 15.0105 148.278 12.6164L148.62 6.04229H156.069V23.4086ZM172.827 3.34424C169.977 3.34424 167.659 4.40826 165.873 6.5363C164.087 8.66434 163.213 11.3244 163.213 14.5545V14.8585C163.213 18.0885 164.087 20.7486 165.873 22.8766C167.659 25.0047 169.977 26.0687 172.827 26.0687C175.753 26.0687 178.147 25.0047 180.009 22.8766C181.871 20.7486 182.783 18.0885 182.783 14.8585V14.5545C182.783 11.3624 181.871 8.66434 180.009 6.5363C178.147 4.40826 175.753 3.34424 172.827 3.34424ZM179.781 14.8965C179.781 17.4805 179.173 19.6086 177.957 21.2046C176.741 22.8386 175.031 23.6366 172.827 23.6366C170.737 23.6366 169.103 22.8386 167.963 21.2046C166.785 19.5705 166.215 17.4805 166.215 14.8965V14.5545C166.215 12.0084 166.785 9.91836 167.963 8.28433C169.141 6.6503 170.737 5.85228 172.827 5.85228C174.993 5.85228 176.703 6.6503 177.919 8.28433C179.135 9.91836 179.743 12.0084 179.743 14.5545V14.8965H179.781ZM186.127 5.58628L188.483 6.00429L188.103 14.0604C187.951 17.5185 187.609 19.9126 187.039 21.3186C186.469 22.7246 185.519 23.4086 184.151 23.4086H183.543V25.7267H184.341C186.735 25.7267 188.369 24.8146 189.357 22.9906C190.307 21.1666 190.915 18.2025 191.105 14.0604L191.485 6.00429H199.123V23.4086L196.653 23.8266V25.7267H204.595V23.8266L202.125 23.4086V6.00429L204.595 5.58628V3.64825H186.165V5.58628H186.127ZM206.001 3.68624V5.62428L208.472 6.04229V23.4466L206.001 23.8646V25.7647H213.944V23.8646L211.474 23.4466V6.04229H219.226L219.454 8.58834H222V3.68624H206.001Z" fill="#2A93D5"/>
</svg>
