<svg width="13" height="11" viewBox="0 0 13 11" fill="none" xmlns="http://www.w3.org/2000/svg">
<path d="M1 2.125C1 1.82663 1.11589 1.54048 1.32218 1.3295C1.52847 1.11853 1.80826 1 2.1 1H10.9C11.1917 1 11.4715 1.11853 11.6778 1.3295C11.8841 1.54048 12 1.82663 12 2.125V8.875C12 9.17337 11.8841 9.45952 11.6778 9.67049C11.4715 9.88147 11.1917 10 10.9 10H2.1C1.80826 10 1.52847 9.88147 1.32218 9.67049C1.11589 9.45952 1 9.17337 1 8.875V2.125Z" stroke="black" stroke-linecap="round" stroke-linejoin="round"/>
<path d="M1 3.25L5.12555 6.62556C5.51566 6.94479 6.00039 7.11871 6.5 7.11871C6.99961 7.11871 7.48434 6.94479 7.87445 6.62556L12 3.25" stroke="black" stroke-linejoin="round"/>
</svg>
