<svg width="91" height="91" viewBox="0 0 91 91" fill="none" xmlns="http://www.w3.org/2000/svg">
<rect x="0.5" y="0.5" width="90" height="90" rx="45" stroke="black" stroke-opacity="0.2"/>
<rect x="8.40015" y="8.40015" width="74.2" height="74.2" rx="37.1" fill="#D2D6ED"/>
<path d="M56.3389 34.7969C56.1207 34.6616 55.8767 34.5687 55.6209 34.5235C55.3651 34.4783 55.1024 34.4817 54.848 34.5335C54.5936 34.5853 54.3523 34.6844 54.138 34.8253C53.9237 34.9662 53.7405 35.1461 53.599 35.3546L42.4978 51.701L37.0839 46.919C36.8929 46.7503 36.669 46.6192 36.4249 46.5331C36.1809 46.4471 35.9215 46.4078 35.6615 46.4175C35.1365 46.4371 34.6412 46.6552 34.2845 47.0237C33.9279 47.3922 33.739 47.881 33.7596 48.3825C33.7801 48.8841 34.0084 49.3572 34.3942 49.698L41.5026 55.9764C41.5026 55.9764 41.7067 56.1442 41.8011 56.2028C42.0193 56.3382 42.2634 56.4312 42.5193 56.4765C42.7752 56.5217 43.0379 56.5183 43.2924 56.4666C43.5469 56.4148 43.7882 56.3156 44.0026 56.1746C44.217 56.0337 44.4002 55.8538 44.5417 55.6451L56.9227 37.4144C57.0643 37.2059 57.1616 36.9728 57.2089 36.7284C57.2562 36.4841 57.2527 36.2332 57.1984 35.9901C57.1442 35.747 57.0404 35.5165 56.8929 35.3118C56.7455 35.1071 56.5572 34.9321 56.3389 34.7969Z" fill="white"/>
</svg>
