<svg width="30" height="30" viewBox="0 0 30 30" fill="none" xmlns="http://www.w3.org/2000/svg">
<g clip-path="url(#clip0_40_5559)">
<path d="M12.6833 17.2C14.4229 18.9647 16.5277 20.3272 18.85 21.1917L21.9917 18.6917C22.0848 18.6275 22.1952 18.5932 22.3083 18.5932C22.4214 18.5932 22.5318 18.6275 22.625 18.6917L28.4583 22.45C28.6798 22.5831 28.8673 22.766 29.0059 22.984C29.1446 23.202 29.2306 23.4493 29.2573 23.7064C29.284 23.9634 29.2505 24.2231 29.1596 24.4649C29.0687 24.7068 28.9227 24.9242 28.7333 25.1L26 27.8C25.6086 28.1868 25.1274 28.4706 24.5996 28.6262C24.0718 28.7818 23.5136 28.8043 22.975 28.6917C17.6018 27.5819 12.6493 24.9829 8.68333 21.1917C4.8054 17.3627 2.12189 12.4907 0.958329 7.16666C0.843384 6.63636 0.867375 6.08536 1.02798 5.56706C1.18858 5.04875 1.48034 4.58073 1.875 4.20833L4.70833 1.475C4.88366 1.29482 5.09748 1.15664 5.33378 1.07081C5.57009 0.98498 5.82274 0.95372 6.07284 0.97937C6.32293 1.00502 6.56398 1.08692 6.77794 1.21893C6.9919 1.35094 7.17322 1.52965 7.30833 1.74166L11.1917 7.5C11.2586 7.59042 11.2948 7.69997 11.2948 7.8125C11.2948 7.92502 11.2586 8.03457 11.1917 8.125L8.63333 11.2C9.52131 13.4758 10.9048 15.5253 12.6833 17.2Z" fill="#2284E6"/>
</g>
<defs>
<clipPath id="clip0_40_5559">
<rect width="30" height="30" fill="white"/>
</clipPath>
</defs>
</svg>
